# xmcd CD database file
#
# Track frame offsets:
#	182
#	11392
#	27422
#	38170
#	64590
#	83462
#	101497
#	113960
#	134207
#	149487
#	167142
#	184000
#	198767
#	215215
#	225712
#	254435
#	273337
#	295317
#	308197
#	320830
#
# Disc length: 4474 seconds
#
# Revision: 3
# Processed by: cddbd v1.5.2PL0 Copyright (c) Steve Scherf et al.
# Submitted via: CDex 1.50
#
DISCID=2c117814
DTITLE=Paolo Conte - The Best Of
DYEAR=1996
DGENRE=Chanson
TTITLE0=Via Con Me
TTITLE1=Sotto Le Stelle Del Jazz
TTITLE2=Elisir
TTITLE3=Boogie
TTITLE4=Sparring Partner
TTITLE5=Come Di
TTITLE6=Azzurro
TTITLE7=Gelato Al Limon
TTITLE8=Happy Feet
TTITLE9=Gli Impermeabili
TTITLE10=Max
TTITLE11=Gong-Oh
TTITLE12=Colleghi Trascurati
TTITLE13=Bartali
TTITLE14=Alle Prese Con Una Verde Milonga
TTITLE15=Dragon
TTITLE16=Hemingway
TTITLE17=Ho Ballato Di Tutto
TTITLE18=Quadrille
TTITLE19=Genova Per Noi
EXTD=YEAR: 1996
EXTT0=
EXTT1=
EXTT2=
EXTT3=
EXTT4=
EXTT5=
EXTT6=
EXTT7=
EXTT8=
EXTT9=
EXTT10=
EXTT11=
EXTT12=
EXTT13=
EXTT14=
EXTT15=
EXTT16=
EXTT17=
EXTT18=
EXTT19=
PLAYORDER=
